<svg xmlns="http://www.w3.org/2000/svg" xmlns:xlink="http://www.w3.org/1999/xlink" width="1024" zoomAndPan="magnify" viewBox="0 0 768 767.999994" height="1024" preserveAspectRatio="xMidYMid meet" version="1.0"><defs><clipPath id="49e8143edc"><path d="M 384 0 L 639.511719 0 L 639.511719 255.511719 L 384 255.511719 Z M 384 0 " clip-rule="nonzero"/></clipPath><clipPath id="af83378560"><path d="M 384 512.488281 L 639.511719 512.488281 L 639.511719 768 L 384 768 Z M 384 512.488281 " clip-rule="nonzero"/></clipPath><clipPath id="ff93b442f9"><path d="M 128.488281 255.511719 L 384 255.511719 L 384 511.027344 L 128.488281 511.027344 Z M 128.488281 255.511719 " clip-rule="nonzero"/></clipPath></defs><g clip-path="url(#49e8143edc)"><path fill="#5271ff" d="M 384 0 L 639.511719 0 L 639.511719 255.511719 L 384 255.511719 Z M 384 0 " fill-opacity="1" fill-rule="nonzero"/></g><g clip-path="url(#af83378560)"><path fill="#004aad" d="M 384 512.488281 L 639.511719 512.488281 L 639.511719 768 L 384 768 Z M 384 512.488281 " fill-opacity="1" fill-rule="nonzero"/></g><g clip-path="url(#ff93b442f9)"><path fill="#38b6ff" d="M 128.488281 255.511719 L 384 255.511719 L 384 511.027344 L 128.488281 511.027344 Z M 128.488281 255.511719 " fill-opacity="1" fill-rule="nonzero"/></g></svg>